<svg width="25" height="24" viewBox="0 0 25 24" fill="none" xmlns="http://www.w3.org/2000/svg">
<path fill-rule="evenodd" clip-rule="evenodd" d="M23.1273 17.1815L21.0676 15.1242C20.6255 14.6818 20.0632 14.379 19.4505 14.2534C18.8378 14.1277 18.2017 14.1849 17.6212 14.4176L15.6391 15.2042C15.4661 15.2736 15.2766 15.2906 15.0941 15.2532C14.9116 15.2158 14.7441 15.1256 14.6124 14.9937L9.011 9.39233C8.88034 9.26058 8.79109 9.09347 8.75426 8.91161C8.71744 8.72974 8.73464 8.54108 8.80374 8.36887L9.59674 6.38678C9.82869 5.80564 9.88476 5.16917 9.758 4.55644C9.63125 3.9437 9.32724 3.38172 8.88376 2.94031L6.82725 0.880593C6.48394 0.53719 6.06253 0.282081 5.5991 0.137098C5.13567 -0.00788571 4.64402 -0.0384256 4.16621 0.0480915C3.6884 0.134609 3.23866 0.335606 2.85549 0.633883C2.47232 0.93216 2.16713 1.31883 1.96603 1.76081L0.670501 4.61353C0.0471935 5.99658 -0.141637 7.53625 0.128982 9.02894C0.3996 10.5216 1.11692 11.897 2.18608 12.9732L11.0355 21.8219C12.4407 23.2201 14.3433 24.0035 16.3256 24C17.3847 24.0012 18.4317 23.7753 19.396 23.3374L22.2471 22.0419C22.6891 21.8409 23.0758 21.5358 23.3741 21.1527C23.6723 20.7696 23.8734 20.3199 23.9599 19.8422C24.0464 19.3644 24.0159 18.8728 23.8709 18.4094C23.7259 17.9461 23.4708 17.5247 23.1273 17.1815ZM22.3848 19.5565C22.3458 19.7804 22.2525 19.9913 22.1129 20.1708C21.9734 20.3502 21.792 20.4926 21.5846 20.5855L18.7326 21.8811C17.6469 22.3701 16.4383 22.518 15.2666 22.3052C14.095 22.0925 13.0155 21.5291 12.171 20.6896L3.31757 11.8433C2.47871 10.9984 1.91589 9.91887 1.70344 8.74734C1.491 7.57581 1.63892 6.3674 2.12767 5.2817L3.42239 2.42498C3.51646 2.21832 3.65919 2.03752 3.83836 1.89803C4.01753 1.75855 4.22782 1.66454 4.45124 1.62404C4.67466 1.58354 4.90457 1.59776 5.1213 1.66547C5.33803 1.73319 5.53514 1.85239 5.69576 2.01288L7.75468 4.07179C7.97553 4.29249 8.1267 4.57318 8.18943 4.87903C8.25217 5.18488 8.2237 5.50241 8.10757 5.79223L7.31457 7.77513C7.12884 8.23873 7.08337 8.74668 7.18381 9.2359C7.28424 9.72513 7.52615 10.1741 7.87951 10.527L13.4809 16.1284C13.8342 16.4816 14.2832 16.7233 14.7725 16.8238C15.2618 16.9242 15.7698 16.8788 16.2336 16.6934L18.2157 15.9004C18.5054 15.7837 18.8231 15.755 19.1291 15.8177C19.435 15.8805 19.7157 16.032 19.9361 16.2533L21.9951 18.313C22.157 18.4724 22.2771 18.6692 22.3449 18.8861C22.4128 19.103 22.4262 19.3332 22.384 19.5565H22.3848ZM13.7818 4.19979C13.5769 4.15831 13.3639 4.19863 13.1884 4.31214C13.0129 4.42565 12.8888 4.60333 12.8426 4.80718C12.7964 5.01103 12.8318 5.22488 12.9412 5.40297C13.0506 5.58107 13.2254 5.70928 13.4281 5.76018C14.6023 6.03094 15.6767 6.62643 16.5287 7.47865C17.3806 8.33088 17.9757 9.40549 18.2461 10.5798C18.2673 10.6843 18.3091 10.7835 18.3692 10.8717C18.4292 10.9598 18.5063 11.035 18.5958 11.0929C18.6854 11.1508 18.7856 11.1903 18.8906 11.2089C18.9956 11.2275 19.1033 11.225 19.2073 11.2014C19.3113 11.1778 19.4095 11.1337 19.4962 11.0716C19.5829 11.0095 19.6564 10.9307 19.7122 10.8399C19.768 10.749 19.8051 10.6479 19.8213 10.5425C19.8375 10.4371 19.8325 10.3295 19.8065 10.2261C19.4686 8.75763 18.7245 7.41381 17.6591 6.34817C16.5938 5.28254 15.2502 4.53806 13.7818 4.19979ZM19.3549 4.65294C17.7679 3.06591 15.7118 2.03238 13.4913 1.70549C13.3851 1.69317 13.2825 1.65969 13.1895 1.60703C13.0964 1.55438 13.0149 1.48362 12.9497 1.39893C12.8844 1.31424 12.8368 1.21734 12.8097 1.11395C12.7825 1.01056 12.7763 0.902777 12.7915 0.796963C12.8067 0.691149 12.8429 0.58945 12.8981 0.497871C12.9532 0.406291 13.0261 0.326689 13.1126 0.263762C13.199 0.200836 13.2971 0.155862 13.4012 0.131496C13.5053 0.10713 13.6132 0.103866 13.7186 0.121896C16.281 0.498613 18.6539 1.69108 20.4853 3.5225C22.3167 5.35392 23.5092 7.72678 23.8859 10.2893C23.904 10.3946 23.9007 10.5025 23.8763 10.6066C23.852 10.7107 23.807 10.8088 23.7441 10.8953C23.6811 10.9817 23.6015 11.0546 23.51 11.1097C23.4184 11.1649 23.3167 11.2011 23.2109 11.2163C23.105 11.2315 22.9973 11.2253 22.8939 11.1982C22.7905 11.171 22.6936 11.1234 22.6089 11.0582C22.5242 10.9929 22.4534 10.9114 22.4008 10.8184C22.3481 10.7253 22.3147 10.6227 22.3023 10.5165C21.9754 8.29605 20.9419 6.23997 19.3549 4.65294Z" fill="white"/>
</svg>
