<svg width="28" height="22" viewBox="0 0 28 22" fill="none" xmlns="http://www.w3.org/2000/svg">
<path fill-rule="evenodd" clip-rule="evenodd" d="M27.0833 0C27.5893 0 28 0.410667 28 0.916667V21.0833C28 21.5893 27.5893 22 27.0833 22H1.41666C0.910664 22 0.499996 21.5893 0.499996 21.0833V0.916667C0.499996 0.410667 0.910664 0 1.41666 0H27.0833ZM2.33333 20.1667V1.83333H26.1667V20.1667H2.33333ZM4.16659 8.21975C4.16659 9.27575 4.56809 10.2401 5.22625 10.9661V16.9583C5.22625 17.3296 5.449 17.6633 5.79184 17.8053C6.13467 17.9474 6.52975 17.8686 6.79192 17.6055L8.26134 16.1324L9.73075 17.6055C9.99292 17.8686 10.3871 17.9474 10.7299 17.8053C11.0728 17.6633 11.2964 17.3296 11.2964 16.9583V10.9661C11.9546 10.2401 12.3552 9.27575 12.3552 8.21975C12.3552 5.95925 10.5209 4.125 8.26134 4.125C6.00084 4.125 4.16659 5.95925 4.16659 8.21975ZM7.05959 12.1715C7.3905 12.2568 7.77917 12.3118 8.232 12.3136H8.26134H8.28975C8.7435 12.3118 9.13217 12.2568 9.46309 12.1715V14.7418L8.91034 14.1873C8.738 14.0149 8.50425 13.9178 8.26134 13.9178C8.0175 13.9178 7.78375 14.0149 7.61234 14.1873L7.05959 14.7418V12.1715ZM10.5218 8.21975C10.5218 8.88342 10.2358 9.48017 9.77934 9.8945L9.75825 9.91284C9.36317 10.263 8.84434 10.4766 8.27692 10.4803H8.26134H8.24575C7.67742 10.4766 7.15859 10.263 6.7635 9.91284C6.75709 9.90642 6.74975 9.9 6.74242 9.8945C6.28684 9.48017 5.99992 8.88342 5.99992 8.21975C5.99992 6.97125 7.01284 5.95833 8.26134 5.95833C9.50892 5.95833 10.5218 6.97125 10.5218 8.21975ZM14.2494 10.0833H23.4161C23.9221 10.0833 24.3327 9.67267 24.3327 9.16667C24.3327 8.66067 23.9221 8.25 23.4161 8.25H14.2494C13.7434 8.25 13.3327 8.66067 13.3327 9.16667C13.3327 9.67267 13.7434 10.0833 14.2494 10.0833ZM23.4161 13.75H14.2494C13.7434 13.75 13.3327 13.3394 13.3327 12.8334C13.3327 12.3274 13.7434 11.9167 14.2494 11.9167H23.4161C23.9221 11.9167 24.3327 12.3274 24.3327 12.8334C24.3327 13.3394 23.9221 13.75 23.4161 13.75Z" fill="#FD6350"/>
</svg>
