<svg width="30" height="30" viewBox="0 0 30 30" fill="none" xmlns="http://www.w3.org/2000/svg">
<mask id="path-1-outside-1" maskUnits="userSpaceOnUse" x="0" y="0" width="30" height="30" fill="black">
<rect fill="white" width="30" height="30"/>
<path fill-rule="evenodd" clip-rule="evenodd" d="M21.8359 4.81183V3.46106C21.836 3.2815 21.7773 3.10685 21.6686 2.9639C21.5599 2.82096 21.4074 2.71761 21.2343 2.66973L15.2187 1.02911C15.0773 0.990295 14.9281 0.990295 14.7867 1.02911L8.77109 2.66973C8.59702 2.7166 8.44323 2.81951 8.33351 2.96255C8.22378 3.10558 8.16423 3.28078 8.16406 3.46106V4.81183C8.16364 7.03302 8.76181 9.21327 9.89566 11.1233C11.0295 13.0333 12.6571 14.6024 14.6073 15.6656C14.7278 15.7313 14.8628 15.7657 15 15.7657C15.1372 15.7657 15.2722 15.7313 15.3926 15.6656C17.3428 14.6024 18.9704 13.0333 20.1043 11.1233C21.2381 9.21327 21.8363 7.03302 21.8359 4.81183ZM15 13.9993C13.4149 13.0462 12.1035 11.6993 11.1931 10.0893C10.2827 8.47942 9.80443 6.66133 9.80468 4.81183V4.08777L15 2.67083L20.1953 4.08777V4.81183C20.1957 6.66151 19.7175 8.47983 18.8071 10.09C17.8967 11.7001 16.5852 13.0472 15 14.0004V13.9993ZM8.3106 14.9006C8.08262 14.6713 7.81143 14.4896 7.51273 14.3658C7.21403 14.2421 6.89376 14.1789 6.57045 14.1798C6.35142 14.1797 6.13334 14.2086 5.92186 14.2656V10.0782C5.92186 9.42556 5.66258 8.79962 5.20107 8.3381C4.73956 7.87659 4.11361 7.61731 3.46093 7.61731C2.80826 7.61731 2.18231 7.87659 1.7208 8.3381C1.25928 8.79962 1.00001 9.42556 1.00001 10.0782V19.4844C0.998288 20.2586 1.29639 21.0034 1.8318 21.5626L5.37499 25.2725V27.086C5.37499 27.5936 5.57665 28.0805 5.9356 28.4394C6.29456 28.7984 6.7814 29 7.28904 29H11.664C12.1717 29 12.6585 28.7984 13.0175 28.4394C13.3764 28.0805 13.5781 27.5936 13.5781 27.086V21.4138C13.5791 21.0187 13.5018 20.6272 13.3506 20.2622C13.1994 19.8971 12.9772 19.5657 12.6971 19.287L8.3106 14.9006ZM11.9375 27.086C11.9375 27.1585 11.9086 27.228 11.8574 27.2793C11.8061 27.3306 11.7365 27.3594 11.664 27.3594H7.28904C7.21652 27.3594 7.14697 27.3306 7.09569 27.2793C7.04441 27.228 7.0156 27.1585 7.0156 27.086V24.9439C7.01564 24.7329 6.93436 24.5299 6.78865 24.3773L3.01851 20.4273C2.77615 20.1732 2.64084 19.8356 2.64062 19.4844V10.0782C2.64062 9.86068 2.72705 9.65203 2.88089 9.49819C3.03473 9.34436 3.24337 9.25793 3.46093 9.25793C3.67849 9.25793 3.88714 9.34436 4.04098 9.49819C4.19482 9.65203 4.28124 9.86068 4.28124 10.0782V15.7362C4.10415 16.1822 4.06157 16.6704 4.15876 17.1404C4.25594 17.6104 4.48864 18.0416 4.82811 18.3809L7.0331 20.5858C7.18692 20.7397 7.39557 20.8262 7.61314 20.8263C7.83072 20.8263 8.03941 20.7399 8.1933 20.5861C8.34718 20.4323 8.43366 20.2237 8.43372 20.0061C8.43377 19.7885 8.34738 19.5798 8.19357 19.4259L5.99077 17.2209C5.87018 17.1006 5.79007 16.9457 5.76155 16.7777C5.73303 16.6097 5.75753 16.437 5.83163 16.2836C5.83329 16.2812 5.83475 16.2786 5.836 16.2759C5.87566 16.1963 5.92792 16.1235 5.99077 16.0605C6.1446 15.9067 6.35321 15.8203 6.57072 15.8203C6.78824 15.8203 6.99685 15.9067 7.15068 16.0605L11.5371 20.4469C11.6645 20.5736 11.7654 20.7243 11.8341 20.8903C11.9029 21.0562 11.938 21.2342 11.9375 21.4138V27.086ZM24.7996 8.3389C25.2609 7.87755 25.8864 7.61804 26.5389 7.61731C27.1914 7.61804 27.8169 7.87755 28.2782 8.3389C28.7396 8.80026 28.9991 9.42578 28.9998 10.0782V19.4844C29.0015 20.2586 28.7034 21.0034 28.168 21.5626L24.6248 25.2725V27.086C24.6248 27.5936 24.4232 28.0805 24.0642 28.4394C23.7053 28.7984 23.2184 29 22.7108 29H18.3358C17.8282 29 17.3413 28.7984 16.9824 28.4394C16.6234 28.0805 16.4218 27.5936 16.4218 27.086V21.4138C16.4207 21.0187 16.498 20.6272 16.6492 20.2622C16.8005 19.8971 17.0226 19.5657 17.3028 19.287L21.6892 14.9006C21.9172 14.6713 22.1884 14.4896 22.4871 14.3658C22.7858 14.2421 23.1061 14.1789 23.4294 14.1798C23.6484 14.1797 23.8665 14.2086 24.078 14.2656V10.0782C24.0787 9.42578 24.3382 8.80026 24.7996 8.3389ZM26.9813 20.4283C27.2239 20.174 27.3593 19.836 27.3592 19.4844V10.0782C27.3592 9.86068 27.2728 9.65203 27.1189 9.49819C26.9651 9.34436 26.7565 9.25793 26.5389 9.25793C26.3213 9.25793 26.1127 9.34436 25.9589 9.49819C25.805 9.65203 25.7186 9.86068 25.7186 10.0782V15.7362C25.8957 16.1822 25.9383 16.6704 25.8411 17.1404C25.7439 17.6104 25.5112 18.0416 25.1717 18.3809L22.9645 20.5858C22.8107 20.7397 22.6021 20.8262 22.3845 20.8263C22.1669 20.8263 21.9582 20.7399 21.8044 20.5861C21.6505 20.4323 21.564 20.2237 21.5639 20.0061C21.5639 19.7885 21.6503 19.5798 21.8041 19.4259L24.0091 17.2209C24.1297 17.1006 24.2098 16.9457 24.2383 16.7777C24.2668 16.6097 24.2423 16.437 24.1682 16.2836C24.1665 16.2812 24.1651 16.2786 24.1638 16.2759C24.1242 16.1963 24.0719 16.1235 24.0091 16.0605C23.8552 15.9067 23.6466 15.8203 23.4291 15.8203C23.2116 15.8203 23.003 15.9067 22.8492 16.0605L18.4627 20.4469C18.3354 20.5736 18.2344 20.7243 18.1657 20.8903C18.097 21.0562 18.0619 21.2342 18.0624 21.4138V27.086C18.0624 27.1585 18.0912 27.228 18.1425 27.2793C18.1937 27.3306 18.2633 27.3594 18.3358 27.3594H22.7108C22.7833 27.3594 22.8529 27.3306 22.9041 27.2793C22.9554 27.228 22.9842 27.1585 22.9842 27.086V24.9439C22.9845 24.7332 23.0657 24.5308 23.2112 24.3784L26.9813 20.4283Z"/>
</mask>
<path fill-rule="evenodd" clip-rule="evenodd" d="M21.8359 4.81183V3.46106C21.836 3.2815 21.7773 3.10685 21.6686 2.9639C21.5599 2.82096 21.4074 2.71761 21.2343 2.66973L15.2187 1.02911C15.0773 0.990295 14.9281 0.990295 14.7867 1.02911L8.77109 2.66973C8.59702 2.7166 8.44323 2.81951 8.33351 2.96255C8.22378 3.10558 8.16423 3.28078 8.16406 3.46106V4.81183C8.16364 7.03302 8.76181 9.21327 9.89566 11.1233C11.0295 13.0333 12.6571 14.6024 14.6073 15.6656C14.7278 15.7313 14.8628 15.7657 15 15.7657C15.1372 15.7657 15.2722 15.7313 15.3926 15.6656C17.3428 14.6024 18.9704 13.0333 20.1043 11.1233C21.2381 9.21327 21.8363 7.03302 21.8359 4.81183ZM15 13.9993C13.4149 13.0462 12.1035 11.6993 11.1931 10.0893C10.2827 8.47942 9.80443 6.66133 9.80468 4.81183V4.08777L15 2.67083L20.1953 4.08777V4.81183C20.1957 6.66151 19.7175 8.47983 18.8071 10.09C17.8967 11.7001 16.5852 13.0472 15 14.0004V13.9993ZM8.3106 14.9006C8.08262 14.6713 7.81143 14.4896 7.51273 14.3658C7.21403 14.2421 6.89376 14.1789 6.57045 14.1798C6.35142 14.1797 6.13334 14.2086 5.92186 14.2656V10.0782C5.92186 9.42556 5.66258 8.79962 5.20107 8.3381C4.73956 7.87659 4.11361 7.61731 3.46093 7.61731C2.80826 7.61731 2.18231 7.87659 1.7208 8.3381C1.25928 8.79962 1.00001 9.42556 1.00001 10.0782V19.4844C0.998288 20.2586 1.29639 21.0034 1.8318 21.5626L5.37499 25.2725V27.086C5.37499 27.5936 5.57665 28.0805 5.9356 28.4394C6.29456 28.7984 6.7814 29 7.28904 29H11.664C12.1717 29 12.6585 28.7984 13.0175 28.4394C13.3764 28.0805 13.5781 27.5936 13.5781 27.086V21.4138C13.5791 21.0187 13.5018 20.6272 13.3506 20.2622C13.1994 19.8971 12.9772 19.5657 12.6971 19.287L8.3106 14.9006ZM11.9375 27.086C11.9375 27.1585 11.9086 27.228 11.8574 27.2793C11.8061 27.3306 11.7365 27.3594 11.664 27.3594H7.28904C7.21652 27.3594 7.14697 27.3306 7.09569 27.2793C7.04441 27.228 7.0156 27.1585 7.0156 27.086V24.9439C7.01564 24.7329 6.93436 24.5299 6.78865 24.3773L3.01851 20.4273C2.77615 20.1732 2.64084 19.8356 2.64062 19.4844V10.0782C2.64062 9.86068 2.72705 9.65203 2.88089 9.49819C3.03473 9.34436 3.24337 9.25793 3.46093 9.25793C3.67849 9.25793 3.88714 9.34436 4.04098 9.49819C4.19482 9.65203 4.28124 9.86068 4.28124 10.0782V15.7362C4.10415 16.1822 4.06157 16.6704 4.15876 17.1404C4.25594 17.6104 4.48864 18.0416 4.82811 18.3809L7.0331 20.5858C7.18692 20.7397 7.39557 20.8262 7.61314 20.8263C7.83072 20.8263 8.03941 20.7399 8.1933 20.5861C8.34718 20.4323 8.43366 20.2237 8.43372 20.0061C8.43377 19.7885 8.34738 19.5798 8.19357 19.4259L5.99077 17.2209C5.87018 17.1006 5.79007 16.9457 5.76155 16.7777C5.73303 16.6097 5.75753 16.437 5.83163 16.2836C5.83329 16.2812 5.83475 16.2786 5.836 16.2759C5.87566 16.1963 5.92792 16.1235 5.99077 16.0605C6.1446 15.9067 6.35321 15.8203 6.57072 15.8203C6.78824 15.8203 6.99685 15.9067 7.15068 16.0605L11.5371 20.4469C11.6645 20.5736 11.7654 20.7243 11.8341 20.8903C11.9029 21.0562 11.938 21.2342 11.9375 21.4138V27.086ZM24.7996 8.3389C25.2609 7.87755 25.8864 7.61804 26.5389 7.61731C27.1914 7.61804 27.8169 7.87755 28.2782 8.3389C28.7396 8.80026 28.9991 9.42578 28.9998 10.0782V19.4844C29.0015 20.2586 28.7034 21.0034 28.168 21.5626L24.6248 25.2725V27.086C24.6248 27.5936 24.4232 28.0805 24.0642 28.4394C23.7053 28.7984 23.2184 29 22.7108 29H18.3358C17.8282 29 17.3413 28.7984 16.9824 28.4394C16.6234 28.0805 16.4218 27.5936 16.4218 27.086V21.4138C16.4207 21.0187 16.498 20.6272 16.6492 20.2622C16.8005 19.8971 17.0226 19.5657 17.3028 19.287L21.6892 14.9006C21.9172 14.6713 22.1884 14.4896 22.4871 14.3658C22.7858 14.2421 23.1061 14.1789 23.4294 14.1798C23.6484 14.1797 23.8665 14.2086 24.078 14.2656V10.0782C24.0787 9.42578 24.3382 8.80026 24.7996 8.3389ZM26.9813 20.4283C27.2239 20.174 27.3593 19.836 27.3592 19.4844V10.0782C27.3592 9.86068 27.2728 9.65203 27.1189 9.49819C26.9651 9.34436 26.7565 9.25793 26.5389 9.25793C26.3213 9.25793 26.1127 9.34436 25.9589 9.49819C25.805 9.65203 25.7186 9.86068 25.7186 10.0782V15.7362C25.8957 16.1822 25.9383 16.6704 25.8411 17.1404C25.7439 17.6104 25.5112 18.0416 25.1717 18.3809L22.9645 20.5858C22.8107 20.7397 22.6021 20.8262 22.3845 20.8263C22.1669 20.8263 21.9582 20.7399 21.8044 20.5861C21.6505 20.4323 21.564 20.2237 21.5639 20.0061C21.5639 19.7885 21.6503 19.5798 21.8041 19.4259L24.0091 17.2209C24.1297 17.1006 24.2098 16.9457 24.2383 16.7777C24.2668 16.6097 24.2423 16.437 24.1682 16.2836C24.1665 16.2812 24.1651 16.2786 24.1638 16.2759C24.1242 16.1963 24.0719 16.1235 24.0091 16.0605C23.8552 15.9067 23.6466 15.8203 23.4291 15.8203C23.2116 15.8203 23.003 15.9067 22.8492 16.0605L18.4627 20.4469C18.3354 20.5736 18.2344 20.7243 18.1657 20.8903C18.097 21.0562 18.0619 21.2342 18.0624 21.4138V27.086C18.0624 27.1585 18.0912 27.228 18.1425 27.2793C18.1937 27.3306 18.2633 27.3594 18.3358 27.3594H22.7108C22.7833 27.3594 22.8529 27.3306 22.9041 27.2793C22.9554 27.228 22.9842 27.1585 22.9842 27.086V24.9439C22.9845 24.7332 23.0657 24.5308 23.2112 24.3784L26.9813 20.4283Z" fill="white"/>
<path d="M21.8359 3.46106L21.7359 3.46097V3.46106H21.8359ZM21.8359 4.81183H21.7359V4.81185L21.8359 4.81183ZM21.6686 2.9639L21.7482 2.90338V2.90338L21.6686 2.9639ZM21.2343 2.66973L21.261 2.57335L21.2606 2.57326L21.2343 2.66973ZM15.2187 1.02911L15.1922 1.12555L15.1924 1.12559L15.2187 1.02911ZM14.7867 1.02911L14.813 1.12559L14.8132 1.12555L14.7867 1.02911ZM8.77109 2.66973L8.79709 2.76629L8.7974 2.76621L8.77109 2.66973ZM8.33351 2.96255L8.25416 2.90168V2.90168L8.33351 2.96255ZM8.16406 3.46106L8.06406 3.46096V3.46106H8.16406ZM8.16406 4.81183L8.26406 4.81185V4.81183H8.16406ZM9.89566 11.1233L9.98165 11.0722L9.89566 11.1233ZM14.6073 15.6656L14.5594 15.7534V15.7534L14.6073 15.6656ZM15.3926 15.6656L15.4405 15.7534V15.7534L15.3926 15.6656ZM20.1043 11.1233L20.0183 11.0722L20.1043 11.1233ZM15 13.9993H15.1V13.9427L15.0515 13.9136L15 13.9993ZM9.80468 4.81183L9.90468 4.81184V4.81183H9.80468ZM9.80468 4.08777L9.77837 3.9913L9.70468 4.01139V4.08777H9.80468ZM15 2.67083L15.0263 2.57435L15 2.56717L14.9737 2.57435L15 2.67083ZM20.1953 4.08777H20.2953V4.01139L20.2216 3.9913L20.1953 4.08777ZM20.1953 4.81183H20.0953V4.81185L20.1953 4.81183ZM18.8071 10.09L18.8941 10.1392L18.8071 10.09ZM15 14.0004H14.9V14.1772L15.0515 14.0861L15 14.0004ZM7.51273 14.3658L7.551 14.2735L7.51273 14.3658ZM8.3106 14.9006L8.23969 14.9711L8.23989 14.9713L8.3106 14.9006ZM6.57045 14.1798L6.57043 14.2798L6.57073 14.2798L6.57045 14.1798ZM5.92186 14.2656H5.82186V14.3962L5.9479 14.3622L5.92186 14.2656ZM5.20107 8.3381L5.13036 8.40881L5.20107 8.3381ZM1.7208 8.3381L1.79151 8.40881H1.79151L1.7208 8.3381ZM1.00001 19.4844L1.10001 19.4847V19.4844H1.00001ZM1.8318 21.5626L1.90412 21.4935L1.90403 21.4934L1.8318 21.5626ZM5.37499 25.2725H5.47499V25.2325L5.44731 25.2035L5.37499 25.2725ZM5.9356 28.4394L5.86489 28.5101L5.9356 28.4394ZM13.0175 28.4394L13.0882 28.5101H13.0882L13.0175 28.4394ZM13.5781 21.4138L13.4781 21.4135V21.4138H13.5781ZM12.6971 19.287L12.6264 19.3577L12.6265 19.3579L12.6971 19.287ZM7.09569 27.2793L7.1664 27.2086H7.1664L7.09569 27.2793ZM7.0156 24.9439L6.91561 24.9439V24.9439H7.0156ZM6.78865 24.3773L6.71631 24.4464L6.71632 24.4464L6.78865 24.3773ZM3.01851 20.4273L2.94615 20.4963L2.94617 20.4963L3.01851 20.4273ZM2.64062 19.4844H2.54062V19.4845L2.64062 19.4844ZM2.88089 9.49819L2.9516 9.56891L2.9516 9.5689L2.88089 9.49819ZM4.04098 9.49819L3.97027 9.5689L3.97027 9.56891L4.04098 9.49819ZM4.28124 15.7362L4.37419 15.7731L4.38124 15.7553V15.7362H4.28124ZM4.15876 17.1404L4.25668 17.1201L4.15876 17.1404ZM4.82811 18.3809L4.89883 18.3101L4.8988 18.3101L4.82811 18.3809ZM7.0331 20.5858L7.10383 20.5152L7.10382 20.5151L7.0331 20.5858ZM8.1933 20.5861L8.1226 20.5154V20.5154L8.1933 20.5861ZM8.43372 20.0061L8.53372 20.0061L8.43372 20.0061ZM8.19357 19.4259L8.12282 19.4966L8.12284 19.4966L8.19357 19.4259ZM5.99077 17.2209L6.06151 17.1503L6.06141 17.1502L5.99077 17.2209ZM5.76155 16.7777L5.86014 16.7609L5.76155 16.7777ZM5.83163 16.2836L5.74909 16.2271L5.74485 16.2333L5.74158 16.2401L5.83163 16.2836ZM5.836 16.2759L5.74645 16.2314L5.74546 16.2335L5.836 16.2759ZM5.99077 16.0605L5.92007 15.9898L5.91995 15.9899L5.99077 16.0605ZM7.15068 16.0605L7.22139 15.9898L7.22138 15.9898L7.15068 16.0605ZM11.5371 20.4469L11.4664 20.5177L11.4666 20.5178L11.5371 20.4469ZM11.8341 20.8903L11.9265 20.852L11.8341 20.8903ZM11.9375 21.4138L11.8375 21.4135V21.4138H11.9375ZM26.5389 7.61731L26.539 7.51731L26.5388 7.51731L26.5389 7.61731ZM24.7996 8.3389L24.7289 8.26819L24.7996 8.3389ZM28.2782 8.3389L28.3489 8.26819L28.2782 8.3389ZM28.9998 10.0782H29.0998V10.0781L28.9998 10.0782ZM28.9998 19.4844H28.8998V19.4847L28.9998 19.4844ZM28.168 21.5626L28.0958 21.4934L28.0957 21.4935L28.168 21.5626ZM24.6248 25.2725L24.5525 25.2035L24.5248 25.2325V25.2725H24.6248ZM24.0642 28.4394L24.1349 28.5101L24.0642 28.4394ZM16.9824 28.4394L16.9117 28.5101H16.9117L16.9824 28.4394ZM16.4218 21.4138H16.5218L16.5218 21.4135L16.4218 21.4138ZM17.3028 19.287L17.3733 19.3579L17.3735 19.3577L17.3028 19.287ZM21.6892 14.9006L21.7599 14.9713L21.7601 14.9711L21.6892 14.9006ZM22.4871 14.3658L22.4488 14.2735L22.4871 14.3658ZM23.4294 14.1798L23.4291 14.2798H23.4294L23.4294 14.1798ZM24.078 14.2656L24.0519 14.3622L24.178 14.3962V14.2656H24.078ZM24.078 10.0782L23.978 10.0781V10.0782H24.078ZM27.3592 19.4844H27.2592V19.4845L27.3592 19.4844ZM26.9813 20.4283L27.0537 20.4974L27.0537 20.4974L26.9813 20.4283ZM27.1189 9.49819L27.0482 9.5689V9.56891L27.1189 9.49819ZM25.9589 9.49819L26.0296 9.56891V9.5689L25.9589 9.49819ZM25.7186 15.7362H25.6186V15.7553L25.6256 15.7731L25.7186 15.7362ZM25.8411 17.1404L25.939 17.1606L25.8411 17.1404ZM25.1717 18.3809L25.2424 18.4516L25.2424 18.4516L25.1717 18.3809ZM22.9645 20.5858L22.8939 20.5151L22.8938 20.5152L22.9645 20.5858ZM22.3845 20.8263L22.3845 20.9263L22.3845 20.8263ZM21.8044 20.5861L21.875 20.5154V20.5154L21.8044 20.5861ZM21.5639 20.0061L21.6639 20.0061L21.5639 20.0061ZM21.8041 19.4259L21.7334 19.3552L21.7334 19.3552L21.8041 19.4259ZM24.0091 17.2209L23.9384 17.1502L23.9384 17.1502L24.0091 17.2209ZM24.2383 16.7777L24.3369 16.7944V16.7944L24.2383 16.7777ZM24.1682 16.2836L24.2583 16.2401L24.255 16.2334L24.2508 16.2272L24.1682 16.2836ZM24.1638 16.2759L24.2544 16.2335L24.2534 16.2314L24.1638 16.2759ZM24.0091 16.0605L24.0799 15.9899L24.0798 15.9898L24.0091 16.0605ZM22.8492 16.0605L22.7785 15.9898L22.7784 15.9898L22.8492 16.0605ZM18.4627 20.4469L18.5332 20.5178L18.5334 20.5177L18.4627 20.4469ZM18.1657 20.8903L18.2581 20.9285L18.1657 20.8903ZM18.0624 21.4138H18.1624V21.4135L18.0624 21.4138ZM18.1425 27.2793L18.2132 27.2086H18.2132L18.1425 27.2793ZM22.9842 24.9439L22.8842 24.9438V24.9439H22.9842ZM23.2112 24.3784L23.2835 24.4475L23.2835 24.4475L23.2112 24.3784ZM21.7359 3.46106V4.81183H21.9359V3.46106H21.7359ZM21.589 3.02442C21.6844 3.14994 21.736 3.3033 21.7359 3.46097L21.9359 3.46114C21.9361 3.2597 21.8701 3.06375 21.7482 2.90338L21.589 3.02442ZM21.2076 2.76611C21.3596 2.80816 21.4936 2.8989 21.589 3.02442L21.7482 2.90338C21.6263 2.74301 21.4551 2.62707 21.261 2.57335L21.2076 2.76611ZM15.1924 1.12559L21.208 2.76621L21.2606 2.57326L15.245 0.932637L15.1924 1.12559ZM14.8132 1.12555C14.9372 1.09148 15.0682 1.09148 15.1922 1.12555L15.2452 0.932682C15.0865 0.889106 14.9189 0.889106 14.7602 0.932682L14.8132 1.12555ZM8.7974 2.76621L14.813 1.12559L14.7604 0.932637L8.74478 2.57326L8.7974 2.76621ZM8.41285 3.02341C8.5092 2.89781 8.64424 2.80745 8.79709 2.76629L8.74509 2.57317C8.5498 2.62576 8.37726 2.74121 8.25416 2.90168L8.41285 3.02341ZM8.26406 3.46115C8.26421 3.30285 8.3165 3.14901 8.41285 3.02341L8.25416 2.90168C8.13106 3.06216 8.06425 3.25871 8.06406 3.46096L8.26406 3.46115ZM8.26406 4.81183V3.46106H8.06406V4.81183H8.26406ZM9.98165 11.0722C8.85697 9.17768 8.26364 7.01507 8.26406 4.81185L8.06406 4.81181C8.06363 7.05097 8.66664 9.24887 9.80967 11.1743L9.98165 11.0722ZM14.6552 15.5778C12.7208 14.5232 11.1063 12.9668 9.98165 11.0722L9.80967 11.1743C10.9527 13.0998 12.5935 14.6816 14.5594 15.7534L14.6552 15.5778ZM15 15.6657C14.8795 15.6657 14.761 15.6355 14.6552 15.5778L14.5594 15.7534C14.6946 15.8271 14.846 15.8657 15 15.8657V15.6657ZM15.3448 15.5778C15.239 15.6355 15.1204 15.6657 15 15.6657V15.8657C15.1539 15.8657 15.3053 15.8271 15.4405 15.7534L15.3448 15.5778ZM20.0183 11.0722C18.8936 12.9668 17.2792 14.5232 15.3448 15.5778L15.4405 15.7534C17.4065 14.6816 19.0472 13.0998 20.1903 11.1743L20.0183 11.0722ZM21.7359 4.81185C21.7363 7.01507 21.143 9.17768 20.0183 11.0722L20.1903 11.1743C21.3333 9.24887 21.9363 7.05097 21.9359 4.81181L21.7359 4.81185ZM11.1061 10.1386C12.0249 11.7635 13.3486 13.123 14.9484 14.085L15.0515 13.9136C13.4813 12.9694 12.182 11.635 11.2802 10.0401L11.1061 10.1386ZM9.70468 4.81182C9.70442 6.67857 10.1872 8.51362 11.1061 10.1386L11.2802 10.0401C10.3783 8.44521 9.90443 6.64408 9.90468 4.81184L9.70468 4.81182ZM9.70468 4.08777V4.81183H9.90468V4.08777H9.70468ZM14.9737 2.57435L9.77837 3.9913L9.83099 4.18425L15.0263 2.7673L14.9737 2.57435ZM20.2216 3.9913L15.0263 2.57435L14.9737 2.7673L20.1689 4.18425L20.2216 3.9913ZM20.2953 4.81183V4.08777H20.0953V4.81183H20.2953ZM18.8941 10.1392C19.813 8.51402 20.2957 6.67874 20.2953 4.81181L20.0953 4.81185C20.0957 6.64428 19.6219 8.44563 18.72 10.0407L18.8941 10.1392ZM15.0515 14.0861C16.6515 13.124 17.9753 11.7643 18.8941 10.1392L18.72 10.0407C17.8182 11.6358 16.5188 12.9704 14.9484 13.9147L15.0515 14.0861ZM14.9 13.9993V14.0004H15.1V13.9993H14.9ZM7.47446 14.4582C7.76094 14.5769 8.02104 14.7512 8.23969 14.9711L8.38151 14.83C8.1442 14.5914 7.86192 14.4022 7.551 14.2735L7.47446 14.4582ZM6.57073 14.2798C6.88081 14.2789 7.18798 14.3396 7.47446 14.4582L7.551 14.2735C7.24008 14.1447 6.9067 14.0788 6.57017 14.0798L6.57073 14.2798ZM5.9479 14.3622C6.15088 14.3075 6.3602 14.2797 6.57043 14.2798L6.57047 14.0798C6.34264 14.0797 6.1158 14.1098 5.89582 14.1691L5.9479 14.3622ZM5.82186 10.0782V14.2656H6.02186V10.0782H5.82186ZM5.13036 8.40881C5.57312 8.85157 5.82186 9.45208 5.82186 10.0782H6.02186C6.02186 9.39904 5.75205 8.74766 5.27178 8.26739L5.13036 8.40881ZM3.46093 7.71731C4.08709 7.71731 4.6876 7.96605 5.13036 8.40881L5.27178 8.26739C4.79152 7.78712 4.14013 7.51731 3.46093 7.51731V7.71731ZM1.79151 8.40881C2.23427 7.96605 2.83478 7.71731 3.46093 7.71731V7.51731C2.78173 7.51731 2.13035 7.78712 1.65009 8.26739L1.79151 8.40881ZM1.10001 10.0782C1.10001 9.45208 1.34875 8.85157 1.79151 8.40881L1.65009 8.26739C1.16982 8.74766 0.900007 9.39904 0.900007 10.0782H1.10001ZM1.10001 19.4844V10.0782H0.900007V19.4844H1.10001ZM1.90403 21.4934C1.3865 20.9529 1.09835 20.233 1.10001 19.4847L0.900008 19.4842C0.898231 20.2842 1.20629 21.0539 1.75957 21.6317L1.90403 21.4934ZM5.44731 25.2035L1.90412 21.4935L1.75948 21.6316L5.30267 25.3416L5.44731 25.2035ZM5.47499 27.086V25.2725H5.27499V27.086H5.47499ZM6.00631 28.3687C5.66611 28.0285 5.47499 27.5671 5.47499 27.086H5.27499C5.27499 27.6201 5.48718 28.1324 5.86489 28.5101L6.00631 28.3687ZM7.28904 28.9C6.80792 28.9 6.34651 28.7089 6.00631 28.3687L5.86489 28.5101C6.2426 28.8878 6.75488 29.1 7.28904 29.1V28.9ZM11.664 28.9H7.28904V29.1H11.664V28.9ZM12.9468 28.3687C12.6065 28.7089 12.1451 28.9 11.664 28.9V29.1C12.1982 29.1 12.7105 28.8878 13.0882 28.5101L12.9468 28.3687ZM13.4781 27.086C13.4781 27.5671 13.287 28.0285 12.9468 28.3687L13.0882 28.5101C13.4659 28.1324 13.6781 27.6201 13.6781 27.086H13.4781ZM13.4781 21.4138V27.086H13.6781V21.4138H13.4781ZM13.2582 20.3004C13.4044 20.6533 13.4791 21.0316 13.4781 21.4135L13.6781 21.4141C13.6792 21.0057 13.5993 20.6012 13.443 20.2239L13.2582 20.3004ZM12.6265 19.3579C12.8974 19.6272 13.112 19.9476 13.2582 20.3004L13.443 20.2239C13.2867 19.8466 13.0571 19.5041 12.7676 19.2161L12.6265 19.3579ZM8.23989 14.9713L12.6264 19.3577L12.7678 19.2163L8.38131 14.8299L8.23989 14.9713ZM11.9281 27.35C11.9981 27.28 12.0375 27.185 12.0375 27.086H11.8375C11.8375 27.132 11.8192 27.1761 11.7867 27.2086L11.9281 27.35ZM11.664 27.4594C11.7631 27.4594 11.858 27.4201 11.9281 27.35L11.7867 27.2086C11.7541 27.2411 11.71 27.2594 11.664 27.2594V27.4594ZM7.28904 27.4594H11.664V27.2594H7.28904V27.4594ZM7.02498 27.35C7.09501 27.4201 7.19 27.4594 7.28904 27.4594V27.2594C7.24304 27.2594 7.19893 27.2411 7.1664 27.2086L7.02498 27.35ZM6.91561 27.086C6.91561 27.185 6.95495 27.28 7.02498 27.35L7.1664 27.2086C7.13388 27.1761 7.1156 27.132 7.1156 27.086H6.91561ZM6.91561 24.9439V27.086H7.1156V24.9439H6.91561ZM6.71632 24.4464C6.84426 24.5804 6.91564 24.7586 6.91561 24.9439L7.1156 24.9439C7.11564 24.7072 7.02445 24.4795 6.86099 24.3083L6.71632 24.4464ZM2.94617 20.4963L6.71631 24.4464L6.86099 24.3083L3.09085 20.3582L2.94617 20.4963ZM2.54062 19.4845C2.54086 19.8613 2.68607 20.2236 2.94615 20.4963L3.09087 20.3582C2.86624 20.1227 2.74083 19.8098 2.74062 19.4844L2.54062 19.4845ZM2.54062 10.0782V19.4844H2.74062V10.0782H2.54062ZM2.81018 9.42748C2.63759 9.60007 2.54062 9.83416 2.54062 10.0782H2.74062C2.74062 9.8872 2.81651 9.70399 2.9516 9.56891L2.81018 9.42748ZM3.46093 9.15793C3.21685 9.15793 2.98277 9.25489 2.81018 9.42748L2.9516 9.5689C3.08668 9.43382 3.2699 9.35793 3.46093 9.35793V9.15793ZM4.11169 9.42748C3.9391 9.25489 3.70501 9.15793 3.46093 9.15793V9.35793C3.65197 9.35793 3.83518 9.43382 3.97027 9.5689L4.11169 9.42748ZM4.38124 10.0782C4.38124 9.83416 4.28428 9.60007 4.11169 9.42748L3.97027 9.56891C4.10535 9.70399 4.18124 9.8872 4.18124 10.0782H4.38124ZM4.38124 15.7362V10.0782H4.18124V15.7362H4.38124ZM4.25668 17.1201C4.16345 16.6693 4.2043 16.201 4.37419 15.7731L4.1883 15.6993C4.004 16.1635 3.95969 16.6715 4.06083 17.1606L4.25668 17.1201ZM4.8988 18.3101C4.57314 17.9847 4.34991 17.571 4.25668 17.1201L4.06083 17.1606C4.16197 17.6498 4.40413 18.0985 4.75743 18.4516L4.8988 18.3101ZM7.10382 20.5151L4.89883 18.3101L4.7574 18.4516L6.96239 20.6566L7.10382 20.5151ZM7.61317 20.7263C7.42211 20.7262 7.2389 20.6503 7.10383 20.5152L6.96238 20.6565C7.13494 20.8292 7.36902 20.9262 7.61312 20.9263L7.61317 20.7263ZM8.1226 20.5154C7.98747 20.6505 7.80422 20.7263 7.61317 20.7263L7.61312 20.9263C7.85722 20.9263 8.09134 20.8294 8.26399 20.6568L8.1226 20.5154ZM8.33372 20.0061C8.33367 20.1971 8.25773 20.3803 8.1226 20.5154L8.26399 20.6568C8.43663 20.4843 8.53366 20.2502 8.53372 20.0061L8.33372 20.0061ZM8.12284 19.4966C8.25791 19.6318 8.33376 19.815 8.33372 20.0061L8.53372 20.0061C8.53377 19.762 8.43686 19.5279 8.2643 19.3552L8.12284 19.4966ZM5.92002 17.2916L8.12282 19.4966L8.26431 19.3553L6.06151 17.1503L5.92002 17.2916ZM5.66296 16.7944C5.69496 16.9829 5.78484 17.1567 5.92012 17.2917L6.06141 17.1502C5.95553 17.0445 5.88518 16.9084 5.86014 16.7609L5.66296 16.7944ZM5.74158 16.2401C5.65845 16.4122 5.63097 16.606 5.66296 16.7944L5.86014 16.7609C5.8351 16.6134 5.85661 16.4618 5.92167 16.3271L5.74158 16.2401ZM5.74546 16.2335C5.74649 16.2313 5.7477 16.2292 5.74909 16.2271L5.91416 16.3401C5.91888 16.3332 5.92301 16.3259 5.92654 16.3184L5.74546 16.2335ZM5.91995 15.9899C5.84951 16.0605 5.79094 16.1421 5.74648 16.2314L5.92552 16.3205C5.96039 16.2505 6.00634 16.1865 6.06158 16.1311L5.91995 15.9899ZM6.57072 15.7203C6.32669 15.7203 6.09265 15.8172 5.92007 15.9898L6.06147 16.1312C6.19654 15.9962 6.37972 15.9203 6.57072 15.9203V15.7203ZM7.22138 15.9898C7.0488 15.8172 6.81476 15.7203 6.57072 15.7203V15.9203C6.76172 15.9203 6.9449 15.9962 7.07998 16.1312L7.22138 15.9898ZM11.6079 20.3762L7.22139 15.9898L7.07997 16.1312L11.4664 20.5177L11.6079 20.3762ZM11.9265 20.852C11.8528 20.6739 11.7444 20.5121 11.6077 20.3761L11.4666 20.5178C11.5846 20.6352 11.6781 20.7748 11.7417 20.9285L11.9265 20.852ZM12.0375 21.4141C12.038 21.2213 12.0003 21.0302 11.9265 20.852L11.7417 20.9285C11.8054 21.0823 11.8379 21.2471 11.8375 21.4135L12.0375 21.4141ZM12.0375 27.086V21.4138H11.8375V27.086H12.0375ZM26.5388 7.51731C25.8598 7.51807 25.2089 7.78811 24.7289 8.26819L24.8703 8.40961C25.3129 7.96698 25.913 7.71801 26.539 7.71731L26.5388 7.51731ZM28.3489 8.26819C27.8689 7.78811 27.218 7.51807 26.539 7.51731L26.5388 7.71731C27.1648 7.71801 27.7649 7.96698 28.2075 8.40961L28.3489 8.26819ZM29.0998 10.0781C29.0991 9.39919 28.829 8.74827 28.3489 8.26819L28.2075 8.40961C28.6502 8.85224 28.8991 9.45238 28.8998 10.0784L29.0998 10.0781ZM29.0998 19.4844V10.0782H28.8998V19.4844H29.0998ZM28.2403 21.6317C28.7935 21.0539 29.1016 20.2842 29.0998 19.4842L28.8998 19.4847C28.9015 20.233 28.6133 20.9529 28.0958 21.4934L28.2403 21.6317ZM24.6972 25.3416L28.2404 21.6316L28.0957 21.4935L24.5525 25.2035L24.6972 25.3416ZM24.7248 27.086V25.2725H24.5248V27.086H24.7248ZM24.1349 28.5101C24.5127 28.1324 24.7248 27.6201 24.7248 27.086H24.5248C24.5248 27.5671 24.3337 28.0285 23.9935 28.3687L24.1349 28.5101ZM22.7108 29.1C23.245 29.1 23.7572 28.8878 24.1349 28.5101L23.9935 28.3687C23.6533 28.7089 23.1919 28.9 22.7108 28.9V29.1ZM18.3358 29.1H22.7108V28.9H18.3358V29.1ZM16.9117 28.5101C17.2894 28.8878 17.8017 29.1 18.3358 29.1V28.9C17.8547 28.9 17.3933 28.7089 17.0531 28.3687L16.9117 28.5101ZM16.3218 27.086C16.3218 27.6201 16.534 28.1324 16.9117 28.5101L17.0531 28.3687C16.7129 28.0285 16.5218 27.5671 16.5218 27.086H16.3218ZM16.3218 21.4138V27.086H16.5218V21.4138H16.3218ZM16.5568 20.2239C16.4006 20.6012 16.3207 21.0057 16.3218 21.4141L16.5218 21.4135C16.5207 21.0316 16.5955 20.6533 16.7416 20.3004L16.5568 20.2239ZM17.2323 19.2161C16.9427 19.5041 16.7131 19.8466 16.5568 20.2239L16.7416 20.3004C16.8878 19.9476 17.1025 19.6272 17.3733 19.3579L17.2323 19.2161ZM21.6185 14.8299L17.2321 19.2163L17.3735 19.3577L21.7599 14.9713L21.6185 14.8299ZM22.4488 14.2735C22.1379 14.4022 21.8556 14.5914 21.6183 14.83L21.7601 14.9711C21.9788 14.7512 22.2389 14.5769 22.5254 14.4582L22.4488 14.2735ZM23.4297 14.0798C23.0931 14.0788 22.7598 14.1447 22.4488 14.2735L22.5254 14.4582C22.8118 14.3396 23.119 14.2789 23.4291 14.2798L23.4297 14.0798ZM24.104 14.1691C23.884 14.1098 23.6572 14.0797 23.4294 14.0798L23.4294 14.2798C23.6396 14.2797 23.849 14.3075 24.0519 14.3622L24.104 14.1691ZM23.978 10.0782V14.2656H24.178V10.0782H23.978ZM24.7289 8.26819C24.2488 8.74827 23.9787 9.39919 23.978 10.0781L24.178 10.0784C24.1787 9.45238 24.4276 8.85224 24.8703 8.40961L24.7289 8.26819ZM27.2592 19.4845C27.2593 19.8103 27.1338 20.1236 26.909 20.3593L27.0537 20.4974C27.314 20.2244 27.4593 19.8617 27.4592 19.4844L27.2592 19.4845ZM27.2592 10.0782V19.4844H27.4592V10.0782H27.2592ZM27.0482 9.56891C27.1833 9.70399 27.2592 9.8872 27.2592 10.0782H27.4592C27.4592 9.83416 27.3622 9.60007 27.1897 9.42748L27.0482 9.56891ZM26.5389 9.35793C26.7299 9.35793 26.9132 9.43382 27.0482 9.5689L27.1897 9.42748C27.0171 9.25489 26.783 9.15793 26.5389 9.15793V9.35793ZM26.0296 9.5689C26.1646 9.43382 26.3479 9.35793 26.5389 9.35793V9.15793C26.2948 9.15793 26.0607 9.25489 25.8881 9.42748L26.0296 9.5689ZM25.8186 10.0782C25.8186 9.8872 25.8945 9.70399 26.0296 9.56891L25.8881 9.42748C25.7156 9.60007 25.6186 9.83416 25.6186 10.0782H25.8186ZM25.8186 15.7362V10.0782H25.6186V15.7362H25.8186ZM25.939 17.1606C26.0401 16.6715 25.9958 16.1635 25.8115 15.6993L25.6256 15.7731C25.7955 16.201 25.8364 16.6693 25.7431 17.1201L25.939 17.1606ZM25.2424 18.4516C25.5957 18.0985 25.8379 17.6498 25.939 17.1606L25.7431 17.1201C25.6499 17.571 25.4267 17.9847 25.101 18.3101L25.2424 18.4516ZM23.0352 20.6566L25.2424 18.4516L25.101 18.3101L22.8939 20.5151L23.0352 20.6566ZM22.3845 20.9263C22.6286 20.9262 22.8627 20.8292 23.0353 20.6565L22.8938 20.5152C22.7587 20.6503 22.5755 20.7262 22.3845 20.7263L22.3845 20.9263ZM21.7337 20.6568C21.9063 20.8294 22.1404 20.9263 22.3845 20.9263L22.3845 20.7263C22.1934 20.7263 22.0102 20.6505 21.875 20.5154L21.7337 20.6568ZM21.4639 20.0061C21.464 20.2502 21.561 20.4843 21.7337 20.6568L21.875 20.5154C21.7399 20.3803 21.664 20.1971 21.6639 20.0061L21.4639 20.0061ZM21.7334 19.3552C21.5608 19.5279 21.4639 19.762 21.4639 20.0061L21.6639 20.0061C21.6639 19.815 21.7397 19.6318 21.8748 19.4966L21.7334 19.3552ZM23.9384 17.1502L21.7334 19.3552L21.8748 19.4966L24.0798 17.2917L23.9384 17.1502ZM24.1397 16.7609C24.1147 16.9084 24.0443 17.0445 23.9384 17.1502L24.0797 17.2917C24.215 17.1567 24.3049 16.9829 24.3369 16.7944L24.1397 16.7609ZM24.0782 16.3271C24.1432 16.4618 24.1647 16.6134 24.1397 16.7609L24.3369 16.7944C24.3689 16.606 24.3414 16.4122 24.2583 16.2401L24.0782 16.3271ZM24.0733 16.3184C24.0768 16.3259 24.081 16.3332 24.0857 16.34L24.2508 16.2272C24.2521 16.2292 24.2533 16.2313 24.2544 16.2335L24.0733 16.3184ZM23.9382 16.1311C23.9935 16.1865 24.0394 16.2505 24.0743 16.3205L24.2534 16.2314C24.2089 16.1421 24.1503 16.0605 24.0799 15.9899L23.9382 16.1311ZM23.4291 15.9203C23.6201 15.9203 23.8033 15.9962 23.9384 16.1312L24.0798 15.9898C23.9072 15.8172 23.6731 15.7203 23.4291 15.7203V15.9203ZM22.9199 16.1312C23.0549 15.9962 23.2381 15.9203 23.4291 15.9203V15.7203C23.1851 15.7203 22.951 15.8172 22.7785 15.9898L22.9199 16.1312ZM18.5334 20.5177L22.9199 16.1312L22.7784 15.9898L18.392 20.3762L18.5334 20.5177ZM18.2581 20.9285C18.3217 20.7748 18.4153 20.6352 18.5332 20.5178L18.3922 20.3761C18.2554 20.5121 18.1471 20.6739 18.0733 20.852L18.2581 20.9285ZM18.1624 21.4135C18.1619 21.2471 18.1944 21.0823 18.2581 20.9285L18.0733 20.852C17.9995 21.0302 17.9618 21.2213 17.9624 21.4141L18.1624 21.4135ZM18.1624 27.086V21.4138H17.9624V27.086H18.1624ZM18.2132 27.2086C18.1806 27.1761 18.1624 27.132 18.1624 27.086H17.9624C17.9624 27.185 18.0017 27.28 18.0718 27.35L18.2132 27.2086ZM18.3358 27.2594C18.2898 27.2594 18.2457 27.2411 18.2132 27.2086L18.0718 27.35C18.1418 27.4201 18.2368 27.4594 18.3358 27.4594V27.2594ZM22.7108 27.2594H18.3358V27.4594H22.7108V27.2594ZM22.8334 27.2086C22.8009 27.2411 22.7568 27.2594 22.7108 27.2594V27.4594C22.8098 27.4594 22.9048 27.4201 22.9749 27.35L22.8334 27.2086ZM22.8842 27.086C22.8842 27.132 22.866 27.1761 22.8334 27.2086L22.9749 27.35C23.0449 27.28 23.0842 27.185 23.0842 27.086H22.8842ZM22.8842 24.9439V27.086H23.0842V24.9439H22.8842ZM23.1388 24.3094C22.9757 24.4803 22.8845 24.7074 22.8842 24.9438L23.0842 24.944C23.0844 24.759 23.1558 24.5812 23.2835 24.4475L23.1388 24.3094ZM26.909 20.3593L23.1388 24.3094L23.2835 24.4475L27.0537 20.4974L26.909 20.3593Z" fill="white" mask="url(#path-1-outside-1)"/>
</svg>
