<svg width="28" height="26" viewBox="0 0 28 26" fill="none" xmlns="http://www.w3.org/2000/svg">
<path d="M26.6437 9.89864L26.6437 9.89862L26.6437 9.89864ZM26.6437 9.89864L26.6437 9.89866M26.6437 9.89864L26.6437 9.89866M26.6437 9.89866L26.6438 9.89874L26.6418 10.5077C26.5137 10.5073 26.389 10.4665 26.2854 10.3911C26.1819 10.3158 26.1047 10.2097 26.0649 10.088C26.025 9.96634 26.0246 9.8352 26.0636 9.71325L26.6437 9.89864L26.6437 9.89866ZM0.24001 10.3741L7.9562 16.0165L4.98993 25.2265C4.95132 25.3454 4.95139 25.4734 4.99014 25.5923C5.02889 25.7111 5.10432 25.8146 5.20558 25.8879C5.30684 25.9611 5.42872 26.0004 5.5537 26C5.67868 25.9996 5.80032 25.9596 5.90114 25.8857L13.6173 20.2434L21.3335 25.8857C21.4343 25.9596 21.556 25.9996 21.681 26C21.8059 26.0004 21.9278 25.9611 22.0291 25.8879C22.1303 25.8146 22.2058 25.7111 22.2445 25.5923C22.2833 25.4734 22.2833 25.3454 22.2447 25.2265L19.2785 16.0165L26.9946 10.3741L26.6457 9.90131L0.588984 9.90131L0.24001 10.3741ZM0.24001 10.3741L0.586689 9.90001M0.24001 10.3741C0.140043 10.3003 0.065876 10.1969 0.0280502 10.0785M0.586689 9.90001L0.0280502 10.0785M0.586689 9.90001L0.0280502 10.0785M0.586689 9.90001L0.243311 9.42074C0.142836 9.49384 0.0679541 9.59674 0.0293096 9.71483C-0.0093349 9.83293 -0.00977559 9.96019 0.0280502 10.0785M26.648 9.90002V9.90002ZM26.648 9.90002L26.6463 9.89777L26.6457 9.89687V9.89593L26.648 9.90002ZM11.2273 9.68713L13.6173 2.51613L16.0074 9.68713L16.2809 10.5077H17.1458H24.779L18.5701 15.0478L17.8705 15.5594L18.1362 16.3844L20.5278 23.81L14.3256 19.2747L13.6173 18.7568L12.909 19.2747L6.70684 23.81L9.09842 16.3844L9.36412 15.5594L8.66452 15.0478L2.45568 10.5077H10.0888H10.9538L11.2273 9.68713Z" stroke="white" stroke-width="2.4"/>
</svg>
