<svg width="27" height="26" viewBox="0 0 27 26" fill="none" xmlns="http://www.w3.org/2000/svg">
<path d="M22.6664 8.57693C22.4472 6.23136 21.3604 4.05206 19.6189 2.46566C17.8773 0.879265 15.6063 0 13.2506 0C10.8948 0 8.62381 0.879265 6.88225 2.46566C5.14068 4.05206 4.05392 6.23136 3.83472 8.57693C2.74275 8.80903 1.76455 9.41138 1.06576 10.282C0.366967 11.1526 -0.00947347 12.2379 0.000181193 13.3543C0.00983585 14.4706 0.404992 15.5493 1.11874 16.4077C1.83248 17.266 2.82095 17.8514 3.91677 18.0646C4.2811 20.2783 5.41918 22.2908 7.12841 23.744C8.83764 25.1971 11.0071 25.9966 13.2506 26H14.6181C15.272 26 15.9113 25.8061 16.4549 25.4428C16.9986 25.0795 17.4224 24.5632 17.6726 23.9591C17.9229 23.3549 17.9883 22.6902 17.8608 22.0489C17.7332 21.4075 17.4183 20.8184 16.9559 20.3561C16.4936 19.8937 15.9045 19.5788 15.2631 19.4512C14.6218 19.3237 13.9571 19.3891 13.3529 19.6394C12.7488 19.8896 12.2325 20.3134 11.8692 20.8571C11.5059 21.4008 11.312 22.04 11.312 22.6939V23.6922C9.84691 23.2924 8.53963 22.453 7.56638 21.2872C6.59313 20.1213 6.00072 18.6852 5.869 17.1722C5.96815 11.7292 5.97499 9.99238 5.84507 9.30859C5.86774 7.34453 6.6697 5.46992 8.07453 4.09715C9.47936 2.72438 11.372 1.9659 13.336 1.98857C15.3001 2.01124 17.1747 2.8132 18.5475 4.21803C19.9202 5.62286 20.6787 7.51548 20.6561 9.47954C20.6561 9.47954 20.6561 9.51714 20.6561 9.53424C20.509 17.3979 20.5706 17.4731 20.9467 17.8594C21.1426 18.0555 21.408 18.1661 21.6852 18.1671C22.8716 18.1481 24.0097 17.6943 24.8838 16.8919C25.7579 16.0894 26.3071 14.9941 26.4272 13.8137C26.5474 12.6332 26.2301 11.4497 25.5357 10.4876C24.8412 9.52549 23.8178 8.85171 22.6596 8.59402L22.6664 8.57693ZM13.3634 22.6939C13.3634 22.4457 13.437 22.2031 13.5749 21.9967C13.7127 21.7904 13.9087 21.6296 14.138 21.5346C14.3672 21.4396 14.6195 21.4148 14.8629 21.4632C15.1063 21.5116 15.3299 21.6311 15.5054 21.8066C15.6809 21.9821 15.8004 22.2057 15.8488 22.4491C15.8972 22.6925 15.8724 22.9448 15.7774 23.174C15.6824 23.4033 15.5216 23.5993 15.3153 23.7372C15.1089 23.875 14.8663 23.9486 14.6181 23.9486H13.3634V22.6939ZM2.05343 13.3225C2.054 12.7513 2.2292 12.194 2.55553 11.7253C2.88187 11.2566 3.34373 10.8989 3.87916 10.7001C3.87916 11.8762 3.87916 13.8934 3.84155 15.9277C3.31587 15.724 2.86394 15.3662 2.5449 14.9014C2.22586 14.4366 2.05456 13.8862 2.05343 13.3225ZM22.6561 15.9414C22.6561 14.7653 22.6561 12.7481 22.6972 10.7172C23.2258 10.9222 23.6796 11.2833 23.9981 11.7524C24.3167 12.2215 24.4849 12.7764 24.4804 13.3435C24.476 13.9105 24.2991 14.4627 23.9732 14.9268C23.6473 15.3908 23.188 15.7447 22.6561 15.9414Z" fill="white"/>
</svg>
