<svg width="60" height="60" viewBox="0 0 60 60" fill="none" xmlns="http://www.w3.org/2000/svg">
<circle opacity="0.16" r="30" transform="matrix(-1 0 0 1 30 30)" fill="#FD6350"/>
<path d="M40.1965 22.6373L40.2147 22.6283L40.232 22.6179C40.482 22.4679 40.8071 22.4067 41.1047 22.4067H41.1158L41.1269 22.4062C42.4222 22.3487 43.5 23.4182 43.5 24.696V35.889C43.5 37.5652 41.6667 38.7006 40.1631 37.9487L40.1612 37.9478L36.7363 36.253L36.0145 35.8959V36.7012V37.7604C36.0145 39.0067 34.9984 40.0498 33.7251 40.0498H24.4035V40.0496L24.3896 40.05C24.2107 40.055 24.116 39.9949 24.0602 39.9329C23.995 39.8605 23.9502 39.7466 23.9502 39.6142C23.9502 39.4817 23.995 39.3678 24.0602 39.2954C24.116 39.2334 24.2107 39.1733 24.3896 39.1783L24.3896 39.1785H24.4035H33.7604C34.6137 39.1785 35.2137 38.5185 35.2137 37.7251V22.7894C35.2137 21.9362 34.5539 21.336 33.7604 21.336H18.8247C17.9714 21.336 17.3714 21.996 17.3714 22.7894V37.7251C17.3714 38.5783 18.0312 39.1785 18.8247 39.1785H20.6879C21.268 39.2008 21.268 40.0275 20.6879 40.0498H18.8247C17.539 40.0498 16.5 39.0297 16.5 37.7604V22.8247C16.5 21.5472 17.5473 20.5 18.8247 20.5H33.7604C34.9985 20.5 36.0498 21.5431 36.0498 22.8247V23.884V24.6893L36.7716 24.3321L40.1965 22.6373ZM20.6469 24.2425L20.6469 24.2427H20.6608H31.889V24.2429L31.9029 24.2425C32.0818 24.2376 32.1766 24.2977 32.2324 24.3597C32.2975 24.4321 32.3424 24.5459 32.3424 24.6784C32.3424 24.8109 32.2975 24.9248 32.2324 24.9972C32.1766 25.0592 32.0818 25.1193 31.9029 25.1143L31.9029 25.1141H31.889H20.6608V25.1139L20.6469 25.1143C20.468 25.1193 20.3732 25.0592 20.3174 24.9972C20.2523 24.9248 20.2074 24.8109 20.2074 24.6784C20.2074 24.5459 20.2523 24.4321 20.3174 24.3597C20.3732 24.2977 20.468 24.2376 20.6469 24.2425ZM36.0498 34.0882V34.1159L36.0529 34.1435C36.1022 34.5874 36.3534 35.0837 36.8648 35.3168L40.5986 37.1836C41.5688 37.6687 42.6639 36.9998 42.6639 35.889V24.696C42.6639 23.8428 42.004 23.2427 41.2106 23.2427C41.0138 23.2427 40.7583 23.2874 40.5394 23.4664L36.865 25.3036C36.3645 25.5311 36.1021 25.9845 36.0523 26.4824L36.0498 26.5072V26.5322V34.0882ZM21.0801 35.8534L21.0788 35.8712V35.889C21.0788 36.1072 20.8789 36.3071 20.6608 36.3071C20.43 36.3071 20.2427 36.1301 20.2427 35.889C20.2427 35.6582 20.4198 35.471 20.6608 35.471C20.9357 35.471 21.0923 35.6827 21.0801 35.8534Z" fill="url(#paint0_linear)" stroke="url(#paint1_linear)"/>
<defs>
<linearGradient id="paint0_linear" x1="16" y1="30.2752" x2="44" y2="30.2752" gradientUnits="userSpaceOnUse">
<stop stop-color="#FD6350"/>
<stop offset="1" stop-color="#FF764A"/>
</linearGradient>
<linearGradient id="paint1_linear" x1="16" y1="30.2752" x2="44" y2="30.2752" gradientUnits="userSpaceOnUse">
<stop stop-color="#FD6350"/>
<stop offset="1" stop-color="#FF764A"/>
</linearGradient>
</defs>
</svg>
